<svg xmlns="http://www.w3.org/2000/svg" viewBox="0 0 33.13 41.34"><defs><style>.cls-1{fill:#010101;}</style></defs><title>Asset 4</title><g id="Layer_2" data-name="Layer 2"><g id="Layer_1-2" data-name="Layer 1"><path class="cls-1" d="M28.91,11.1H25.38V8.82a8.82,8.82,0,0,0-17.64,0V11.1H4.22L0,41.34H33.13ZM9.09,8.82A7.47,7.47,0,1,1,24,8.82V11.1H9.09Zm-3.7,3.62H7.74v3.2a.69.69,0,0,0,.68.68.68.68,0,0,0,.67-.68v-3.2H24v3.2a.69.69,0,0,0,.68.68.68.68,0,0,0,.67-.68v-3.2h2.36L31.58,40h-30Z"/></g></g></svg>